<?xml version="1.0" encoding="utf-8"?>
<!-- Generator: Adobe Illustrator 22.1.0, SVG Export Plug-In . SVG Version: 6.00 Build 0)  -->
<svg version="1.1" id="Layer_1" xmlns="http://www.w3.org/2000/svg" xmlns:xlink="http://www.w3.org/1999/xlink" x="0px" y="0px"
	 viewBox="0 0 759.6599731 124.2099991" style="enable-background:new 0 0 759.6599731 124.2099991;" xml:space="preserve">
<title>Jabil-Logo-white</title>
<path d="M83.9899979,124.1600037c12,0,20.159996-2.0499878,24.4199982-6.1700134s6.4200058-11.8200073,6.4200058-23.2000122
	V0.029999h-29v100.8300171H29.1500015V63.5500183L0.0000019,69.0800171v25.75
	c0,11.3800049,2.1399989,19.1000061,6.3600011,23.2000122S18.75,124.1600037,30.7999992,124.1600037H83.9899979z"/>
<rect x="545.2399902" width="28.9400024" height="124.2099991"/>
<polygon points="637.539978,0.03 637.539978,124.2099991 759.6599731,124.2099991 759.6599731,100.8600006 666.4799805,100.8600006 
	666.4799805,0.03 "/>
<path d="M483.75,67.7399902c-3.8800049-4.1599731-9.396637-6.706665-16.5499878-7.6400146
	c6.8800049-0.8500061,12.1799927-3.0700073,15.8399963-6.6400146s5.4899902-8.2900085,5.4899902-14.2000122V24.1600037
	c0-8.3933411-2.1933289-14.5133209-6.5799866-18.3600006c-4.3866577-3.846664-11.4999695-5.7666631-21.3399963-5.759995H354.2799988
	v57h-78.4700012l-32.6300049-57h-27.8399963l-70.1999969,124.1199951h28.7599945L184.75,104.019989l0.0500031-0.0899963v0.0899963
	l75.7499847-19.6300049l21.3500061,39.7700195h32.4100037L287.5,77.3399963l66.7799988-17.3099976v64.1300049h98.5599976
	c12.3399963,0,21.519989-2,27.6199951-6s9.0599976-10.1099854,9.0599976-18.3299866V83.980011
	C489.5266418,77.3066711,487.603363,71.8933105,483.75,67.7399902z M210.3599854,56.9400024l17.8800201-32.7799988
	l17.4099884,32.7999878L210.3599854,56.9400024z M382.7299805,20.2799988h65.8099976
	c5.019989,0,8.4733276,0.6900024,10.3599854,2.0700073C460.75,23.7000122,461.75,26,461.75,29.1600037v11.7000122
	c0,3.2900085-1,5.6000061-2.9100037,6.8900146s-5.3399963,2-10.3599854,2h-65.7900085V20.2799988H382.7299805z
	 M462.6499634,90.6900024c0,4.1799927-1,7.0700073-2.9200134,8.7200012s-5.6499939,2.4599915-11.1900024,2.4599915h-65.8499451
	V70.1600037H448.5c5.5299988,0,9.269989,0.8200073,11.1900024,2.4299927s2.9200134,4.5,2.9200134,8.6499939v9.4100037
	L462.6499634,90.6900024z"/>
</svg>
